HIERARCHY
ROOT Hips
{
	OFFSET 0.000000 0.000000 0.000000
	CHANNELS 6 Xposition Yposition Zposition Zrotation Yrotation Xrotation 
	JOINT LHipJoint
	{
		OFFSET 0.000000 0.000000 0.000000
		CHANNELS 3 Zrotation Yrotation Xrotation
		JOINT LeftUpLeg
		{
			OFFSET 1.363060 -1.794630 0.839290
			CHANNELS 3 Zrotation Yrotation Xrotation
			JOINT LeftLeg
			{
				OFFSET 2.448110 -6.726130 0.000000
				CHANNELS 3 Zrotation Yrotation Xrotation
				JOINT LeftFoot
				{
					OFFSET 2.562200 -7.039590 0.000000
					CHANNELS 3 Zrotation Yrotation Xrotation
					JOINT LeftToeBase
					{
						OFFSET 0.157640 -0.433110 2.322550
						CHANNELS 3 Zrotation Yrotation Xrotation
						End Site
						{
							OFFSET 0.000000 0.000000 0.000000
						}
					}
				}
			}
		}
	}
	JOINT RHipJoint
	{
		OFFSET 0.000000 0.000000 0.000000
		CHANNELS 3 Zrotation Yrotation Xrotation
		JOINT RightUpLeg
		{
			OFFSET -1.305520 -1.794630 0.839290
			CHANNELS 3 Zrotation Yrotation Xrotation
			JOINT RightLeg
			{
				OFFSET -2.542530 -6.985550 0.000000
				CHANNELS 3 Zrotation Yrotation Xrotation
				JOINT RightFoot
				{
					OFFSET -2.568260 -7.056230 0.000000
					CHANNELS 3 Zrotation Yrotation Xrotation
					JOINT RightToeBase
					{
						OFFSET -0.164730 -0.452590 2.363150
						CHANNELS 3 Zrotation Yrotation Xrotation
						End Site
						{
							OFFSET 0.000000 0.000000 0.000000
						}
					}
				}
			}
		}
	}
}
MOTION
Frames: 32
Frame Time: 0.008333
-4.864944 15.356441 1.484610 -131.915129 84.594346 -107.088064 -8.901777 -1.455134 -1.820006 -24.766108 2.224289 -70.951982 -1.474781 4.131103 55.424881 5.377705 20.008422 -24.971411 174.684900 0.000000 -9.724400 10.291166 -3.117267 -7.037020 14.436442 -21.382332 -32.000739 0.337119 -5.873768 69.280124 1.003565 13.285509 -2.904468 0.660300 0.000000 -79.058900
-4.741975 15.343917 1.473407 -131.022675 84.421629 -106.347307 -8.913028 -1.535161 -1.903073 -24.408737 2.385468 -70.667964 -1.394684 4.158028 56.318027 5.408137 20.139191 -25.674362 174.357200 -0.000000 -9.711300 10.413701 -3.063582 -7.065500 14.126218 -21.500436 -32.343861 0.057582 -5.968695 70.531845 0.966394 13.578858 -0.478860 1.246700 0.000001 -79.380700
-4.621185 15.333421 1.460376 -130.194443 84.243045 -105.679481 -8.925629 -1.612390 -1.983725 -24.042585 2.531041 -70.303367 -1.321296 4.170969 57.111377 5.450755 20.318386 -26.404009 174.004801 -0.000000 -9.778200 10.527454 -2.995690 -7.097002 13.829306 -21.594685 -32.727169 -0.215866 -6.059441 71.806295 0.908040 13.845403 1.972081 1.878200 -0.000000 -79.300900
-4.502540 15.324808 1.445710 -129.403110 84.058474 -105.053746 -8.938837 -1.687448 -2.062613 -23.668859 2.665816 -69.884804 -1.252007 4.174216 57.832005 5.501790 20.539346 -27.132609 173.638301 -0.000000 -9.935100 10.633022 -2.915571 -7.127596 13.549966 -21.652194 -33.149193 -0.477589 -6.146082 73.094900 0.832762 14.082792 4.380256 2.530400 -0.000000 -78.809500
-4.386039 15.317963 1.429728 -128.634216 83.867890 -104.451032 -8.951780 -1.759822 -2.140758 -23.293338 2.797736 -69.438149 -1.185418 4.171955 58.502395 5.556460 20.788203 -27.835107 173.270100 0.000000 -10.164100 10.731252 -2.825508 -7.153487 13.292612 -21.661895 -33.610320 -0.723764 -6.229140 74.389635 0.745990 14.281120 6.672969 3.173400 -0.000000 -77.945200
-4.271619 15.312845 1.412697 -127.886358 83.671278 -103.865935 -8.963896 -1.828383 -2.219114 -22.923395 2.936720 -68.985612 -1.121408 4.167791 59.137931 5.609609 21.045546 -28.492431 172.912800 -0.000000 -10.436199 10.822704 -2.728087 -7.171314 13.061798 -21.615353 -34.111501 -0.952634 -6.309380 75.682852 0.653737 14.421912 8.773606 3.771900 -0.000000 -76.733000
-4.159261 15.309447 1.394853 -127.172612 83.467837 -103.307206 -8.974989 -1.891768 -2.298766 -22.567259 3.092377 -68.543556 -1.060852 4.164445 59.746717 5.656543 21.290122 -29.093095 172.577900 -0.000000 -10.711900 10.907570 -2.625664 -7.178946 12.861271 -21.508539 -34.654436 -1.164536 -6.387671 76.966441 0.561555 14.481058 10.615419 4.290200 0.000000 -75.267100
-4.048932 15.307761 1.376383 -126.518203 83.256845 -102.797415 -8.985481 -1.948681 -2.380524 -22.232379 3.273323 -68.121681 -1.005392 4.163669 60.329669 5.693364 21.500865 -29.633161 172.274800 -0.000001 -10.942800 10.985299 -2.520525 -7.175200 12.694254 -21.341228 -35.239073 -1.361280 -6.464557 78.231297 0.473811 14.429440 12.142228 4.694100 0.000000 -73.672000
-3.940498 15.307795 1.357347 -125.956154 83.036522 -102.367449 -8.996646 -1.998435 -2.464711 -21.922933 3.485338 -67.722194 -0.957019 4.166105 60.881910 5.717455 21.659670 -30.117135 172.008799 0.000000 -11.098701 11.054510 -2.414713 -7.160069 12.562374 -21.117139 -35.863875 -1.545239 -6.540268 79.467340 0.393415 14.239089 13.312310 4.955400 0.000000 -72.052400
-3.833905 15.309537 1.337702 -125.525716 82.805281 -102.056495 -9.010369 -2.040933 -2.551148 -21.640596 3.730560 -67.341004 -0.917666 4.171477 61.394663 5.727578 21.753759 -30.554651 171.782000 -0.000000 -11.155800 11.113134 -2.310035 -7.134547 12.465915 -20.843227 -36.524663 -1.718604 -6.614610 80.663383 0.321640 13.885982 14.100001 5.054901 0.000000 -70.495000
-3.729028 15.312859 1.317282 -125.264815 82.560494 -101.903187 -9.029124 -2.077029 -2.639472 -21.383196 4.007957 -66.969147 -0.888819 4.178839 61.858003 5.723729 21.776592 -30.958051 171.593200 -0.000000 -11.097000 11.158531 -2.208056 -7.100673 12.404230 -20.529016 -37.214651 -1.882484 -6.686945 81.805402 0.258079 13.353420 14.500418 4.986900 0.000000 -69.128100
-3.625702 15.317678 1.295907 -125.207458 82.299891 -101.943798 -9.055585 -2.108005 -2.728719 -21.146127 4.312490 -66.594359 -0.871441 4.186763 62.262486 5.707014 21.727534 -31.341662 171.438100 -0.000000 -10.933900 11.188010 -2.110107 -7.060967 12.374782 -20.185560 -37.925222 -2.036803 -6.756511 82.879643 0.201408 12.637242 14.521662 4.758801 -0.000000 -67.961900
-3.523826 15.323865 1.273365 -125.376975 82.021127 -102.204553 -9.092181 -2.135497 -2.817810 -20.922911 4.636916 -66.203886 -0.865799 4.193712 62.600997 5.679309 21.611515 -31.718310 171.310900 0.000000 -10.684500 11.199260 -2.017100 -7.018033 12.373498 -19.823603 -38.646309 -2.180187 -6.822327 83.871465 0.149422 11.745590 14.188330 4.392000 0.000000 -66.992000
-3.423246 15.331242 1.249389 -125.781152 81.721675 -102.696627 -9.141149 -2.161458 -2.905891 -20.705474 4.972848 -65.785891 -0.871486 4.198427 62.870861 5.643057 21.437884 -32.100344 171.204600 0.000000 -10.404900 11.190374 -1.929590 -6.974871 12.395340 -19.454324 -39.366848 -2.310190 -6.883419 84.766583 0.099607 10.701475 13.539510 3.919400 0.000000 -66.147200
-3.323827 15.339686 1.224022 -126.420104 81.401226 -103.422989 -9.202743 -2.186131 -2.991009 -20.489143 5.309884 -65.331651 -0.887008 4.199538 63.071239 5.599754 21.216918 -32.482727 171.118500 0.000000 -10.038200 11.161710 -1.847099 -6.931787 12.433137 -19.083992 -40.078439 -2.423998 -6.938400 85.551009 0.048714 9.533273 12.630162 3.380100 0.000000 -65.446100
-3.225427 15.349056 1.197089 -127.267191 81.057457 -104.359565 -9.277912 -2.211509 -3.073039 -20.264939 5.640345 -64.836450 -0.911002 4.196874 63.208647 5.552227 20.961961 -32.876139 171.044200 -0.000000 -9.705000 11.112958 -1.769152 -6.891152 12.481177 -18.719622 -40.771565 -2.518729 -6.986371 86.214567 -0.005137 8.286734 11.519585 2.816700 0.000001 -64.720300
-3.127960 15.359226 1.168697 -128.291373 80.690492 -105.476714 -9.365451 -2.237602 -3.151067 -20.029090 5.956707 -64.300007 -0.941339 4.190334 63.290808 5.501863 20.684301 -33.273824 170.981000 -0.000000 -9.404400 11.046225 -1.694408 -6.852333 12.532129 -18.362643 -41.440182 -2.592241 -7.026158 86.749126 -0.063699 7.005384 10.274585 2.266700 0.000000 -63.912400
-3.031326 15.370141 1.139094 -129.453398 80.301082 -106.735688 -9.463418 -2.264195 -3.224795 -19.779467 6.253811 -63.725933 -0.975874 4.180336 63.327812 5.449670 20.393649 -33.667924 170.928700 -0.000000 -9.142300 10.964388 -1.621316 -6.814049 12.579309 -18.011759 -42.079867 -2.643314 -7.056729 87.149604 -0.127562 5.733688 8.963084 1.759899 0.000000 -62.991000
-2.935411 15.381764 1.108617 -130.711930 79.891158 -108.094217 -9.569098 -2.290739 -3.294296 -19.516077 6.528796 -63.121479 -1.012664 4.167679 63.331040 5.396286 20.097341 -34.050621 170.887600 -0.000000 -8.926600 10.871056 -1.548249 -6.774140 12.616651 -17.662627 -42.689052 -2.671884 -7.077386 87.415064 -0.195910 4.512112 7.644366 1.315699 -0.000000 -61.929900
-2.840128 15.394116 1.077523 -132.018308 79.462790 -109.502904 -9.679941 -2.316945 -3.360511 -19.239243 6.783381 -62.494778 -1.050243 4.153390 63.310636 5.341732 19.799387 -34.414324 170.858900 -0.000000 -8.757800 10.769728 -1.474179 -6.730508 12.640020 -17.309334 -43.266536 -2.678818 -7.087858 87.548672 -0.266371 3.376523 6.362655 0.943200 0.000000 -60.657500
-2.745424 15.407168 1.046505 -133.358665 79.020436 -110.943083 -9.791118 -2.340862 -3.422610 -18.956779 7.013341 -61.857914 -1.087132 4.137828 63.275093 5.286002 19.502170 -34.748133 170.845400 0.000000 -8.597400 10.665497 -1.397413 -6.678407 12.643710 -16.942152 -43.817636 -2.665768 -7.087975 87.553462 -0.337119 2.345849 5.159223 0.641999 0.000000 -59.396899
-2.651168 15.420993 1.015652 -134.683095 78.566990 -112.364243 -9.900996 -2.362718 -3.483002 -18.669653 7.227966 -61.216933 -1.123164 4.122014 63.229617 5.228412 19.204063 -35.048941 170.848199 0.000000 -8.434300 10.560806 -1.318237 -6.616522 12.627086 -16.554554 -44.341725 -2.634575 -7.078313 87.438329 -0.404219 1.442047 4.044863 0.407300 -0.000000 -58.022300
-2.557329 15.435587 0.985385 -135.975268 78.106579 -113.746773 -10.006475 -2.381652 -3.541900 -18.383722 7.429224 -60.580022 -1.158185 4.106049 63.176145 5.168737 18.903507 -35.312964 170.868800 0.000000 -8.234700 10.458765 -1.236405 -6.541610 12.588583 -16.137565 -44.844121 -2.587343 -7.059514 87.211892 -0.465180 0.670552 3.024744 0.229800 0.000000 -56.641700
-2.463776 15.450974 0.955829 -137.214513 77.642956 -115.067728 -10.106010 -2.397491 -3.600407 -18.101996 7.622919 -59.950495 -1.192698 4.089964 63.113623 5.106635 18.597553 -35.540595 170.907600 -0.000000 -7.973800 10.360986 -1.152518 -6.452140 12.529422 -15.685071 -45.328060 -2.525957 -7.032459 86.883961 -0.517930 0.030779 2.090746 0.099700 0.000001 -55.294400
-2.370464 15.467065 0.927249 -138.403929 77.179723 -116.326176 -10.197364 -2.409492 -3.657662 -17.830211 7.807054 -59.332086 -1.226989 4.072940 63.038673 5.042687 18.286122 -35.733487 170.963300 0.000000 -7.632600 10.269191 -1.066574 -6.346013 12.449452 -15.191679 -45.802118 -2.452525 -6.998383 86.466217 -0.561789 -0.487379 1.229794 0.007200 -0.000000 -54.033500
-2.277340 15.483773 0.899632 -139.539599 76.718659 -117.515787 -10.280005 -2.417906 -3.713416 -17.569829 7.981486 -58.724463 -1.261586 4.054151 62.946154 4.977535 17.969509 -35.896300 171.033699 -0.000000 -7.199600 10.183468 -0.979072 -6.222807 12.350705 -14.654006 -46.271901 -2.368853 -6.958395 85.970338 -0.597034 -0.899358 0.423222 -0.056500 0.000000 -52.892000
-2.184322 15.501093 0.872648 -140.606893 76.260536 -118.622728 -10.355512 -2.423842 -3.767457 -17.316256 8.148664 -58.123619 -1.297146 4.033034 62.830310 4.911712 17.648131 -36.035919 171.115700 -0.000000 -6.683500 10.101917 -0.891325 -6.084184 12.240256 -14.073939 -46.740070 -2.276406 -6.913324 85.407640 -0.624775 -1.223878 -0.347776 -0.098600 -0.000000 -51.814300
-2.091439 15.518879 0.846155 -141.614691 75.804827 -119.654036 -10.424231 -2.427744 -3.817918 -17.068645 8.301149 -57.526998 -1.333530 4.008352 62.686425 4.846852 17.327519 -36.158676 171.204599 -0.000000 -6.097500 10.023470 -0.803443 -5.931254 12.121695 -13.453824 -47.214133 -2.177045 -6.864274 84.790284 -0.647439 -1.485463 -1.095344 -0.125200 -0.000000 -50.811100
-1.998634 15.537043 0.819936 -142.570007 75.350789 -120.616354 -10.487552 -2.430402 -3.862922 -16.822843 8.431504 -56.930185 -1.370398 3.979163 62.511055 4.784440 17.013826 -36.270529 171.295400 -0.000000 -5.466900 9.946223 -0.715805 -5.766455 12.000822 -12.799271 -47.698814 -2.072552 -6.812085 84.129742 -0.667942 -1.709421 -1.827775 -0.141300 -0.000000 -49.862800
-1.905975 15.555487 0.793680 -143.478198 74.895827 -121.516141 -10.547563 -2.433086 -3.900658 -16.572235 8.531667 -56.328641 -1.407081 3.944833 62.302695 4.725975 16.714297 -36.377317 171.383300 -0.000000 -4.823300 9.867694 -0.628794 -5.593168 11.884475 -12.117649 -48.196895 -1.964667 -6.757334 83.436238 -0.689375 -1.919779 -2.546818 -0.150200 -0.000000 -48.949500
-1.813487 15.574108 0.767193 -144.353164 74.437392 -122.366996 -10.604841 -2.436034 -3.928740 -16.316399 8.589123 -55.719948 -1.442309 3.904414 62.061965 4.673332 16.438636 -36.482107 171.462900 0.000001 -4.200700 9.786886 -0.542100 -5.414421 11.775821 -11.419087 -48.715042 -1.855446 -6.701333 82.722013 -0.714497 -2.136212 -3.250436 -0.154200 0.000000 -48.049000
-1.721245 15.592911 0.740321 -145.205519 73.971846 -123.181383 -10.661351 -2.440473 -3.945531 -16.048437 8.593919 -55.100406 -1.474840 3.857725 61.791345 4.627624 16.194179 -36.587765 171.530100 0.000000 -3.631000 9.701796 -0.456065 -5.233777 11.681016 -10.710518 -49.252251 -1.746410 -6.644271 81.994040 -0.745696 -2.374785 -3.933399 -0.154600 -0.000000 -47.164399
